<mxfile host="app.diagrams.net" agent="Mozilla/5.0 (Windows NT 10.0; Win64; x64) AppleWebKit/537.36 (KHTML, like Gecko) Chrome/131.0.0.0 Safari/537.36" version="25.0.3">
  <diagram name="Page-1" id="DHfWXaRiptLiZUsdGqs2">
    <mxGraphModel dx="1985" dy="857" grid="1" gridSize="10" guides="1" tooltips="1" connect="1" arrows="1" fold="1" page="1" pageScale="1" pageWidth="827" pageHeight="1169" math="0" shadow="0">
      <root>
        <mxCell id="0" />
        <mxCell id="1" parent="0" />
        <mxCell id="yQAe7mXzBgoi-jtD4TqB-1" value="Site User" style="shape=umlActor;verticalLabelPosition=bottom;verticalAlign=top;html=1;" parent="1" vertex="1">
          <mxGeometry x="80" y="330" width="30" height="60" as="geometry" />
        </mxCell>
        <mxCell id="yQAe7mXzBgoi-jtD4TqB-2" value="" style="swimlane;startSize=0;fillColor=#FFE6CC;strokeColor=#3333FF;" parent="1" vertex="1">
          <mxGeometry x="190" y="70" width="430" height="940" as="geometry" />
        </mxCell>
        <mxCell id="yQAe7mXzBgoi-jtD4TqB-3" value="Connect Hub" style="text;html=1;align=center;verticalAlign=middle;resizable=0;points=[];autosize=1;strokeColor=none;fillColor=none;" parent="yQAe7mXzBgoi-jtD4TqB-2" vertex="1">
          <mxGeometry x="160" width="90" height="30" as="geometry" />
        </mxCell>
        <mxCell id="yQAe7mXzBgoi-jtD4TqB-7" value="Sign up" style="ellipse;whiteSpace=wrap;html=1;" parent="yQAe7mXzBgoi-jtD4TqB-2" vertex="1">
          <mxGeometry x="209" y="90" width="65" height="30" as="geometry" />
        </mxCell>
        <mxCell id="yQAe7mXzBgoi-jtD4TqB-8" value="Manage profile" style="ellipse;whiteSpace=wrap;html=1;" parent="yQAe7mXzBgoi-jtD4TqB-2" vertex="1">
          <mxGeometry x="77.5" y="300" width="105" height="50" as="geometry" />
        </mxCell>
        <mxCell id="yQAe7mXzBgoi-jtD4TqB-9" value="Add user" style="ellipse;whiteSpace=wrap;html=1;" parent="yQAe7mXzBgoi-jtD4TqB-2" vertex="1">
          <mxGeometry x="250" y="360" width="90" height="40" as="geometry" />
        </mxCell>
        <mxCell id="yQAe7mXzBgoi-jtD4TqB-11" value="Remove user" style="ellipse;whiteSpace=wrap;html=1;" parent="yQAe7mXzBgoi-jtD4TqB-2" vertex="1">
          <mxGeometry x="259" y="480" width="91" height="40" as="geometry" />
        </mxCell>
        <mxCell id="yQAe7mXzBgoi-jtD4TqB-12" value="Block user" style="ellipse;whiteSpace=wrap;html=1;" parent="yQAe7mXzBgoi-jtD4TqB-2" vertex="1">
          <mxGeometry x="270" y="420" width="90" height="40" as="geometry" />
        </mxCell>
        <mxCell id="yQAe7mXzBgoi-jtD4TqB-13" value="Manage Users" style="ellipse;whiteSpace=wrap;html=1;" parent="yQAe7mXzBgoi-jtD4TqB-2" vertex="1">
          <mxGeometry x="60" y="420" width="140" height="70" as="geometry" />
        </mxCell>
        <mxCell id="yQAe7mXzBgoi-jtD4TqB-19" value="Add Post" style="ellipse;whiteSpace=wrap;html=1;" parent="yQAe7mXzBgoi-jtD4TqB-2" vertex="1">
          <mxGeometry x="330" y="220" width="69" height="30" as="geometry" />
        </mxCell>
        <mxCell id="yQAe7mXzBgoi-jtD4TqB-20" value="Add Story" style="ellipse;whiteSpace=wrap;html=1;" parent="yQAe7mXzBgoi-jtD4TqB-2" vertex="1">
          <mxGeometry x="359" y="270" width="69" height="30" as="geometry" />
        </mxCell>
        <mxCell id="yQAe7mXzBgoi-jtD4TqB-21" value="&amp;lt;&amp;lt;include&amp;gt;&amp;gt;" style="html=1;verticalAlign=bottom;labelBackgroundColor=none;endArrow=open;endFill=0;dashed=1;rounded=0;entryX=0;entryY=0.5;entryDx=0;entryDy=0;exitX=0.5;exitY=0;exitDx=0;exitDy=0;" parent="yQAe7mXzBgoi-jtD4TqB-2" source="yQAe7mXzBgoi-jtD4TqB-89" target="yQAe7mXzBgoi-jtD4TqB-19" edge="1">
          <mxGeometry width="160" relative="1" as="geometry">
            <mxPoint x="215" y="185" as="sourcePoint" />
            <mxPoint x="295" y="160" as="targetPoint" />
          </mxGeometry>
        </mxCell>
        <mxCell id="yQAe7mXzBgoi-jtD4TqB-22" value="&amp;lt;&amp;lt;include&amp;gt;&amp;gt;" style="html=1;verticalAlign=bottom;labelBackgroundColor=none;endArrow=open;endFill=0;dashed=1;rounded=0;exitX=0.5;exitY=0;exitDx=0;exitDy=0;entryX=0;entryY=0.5;entryDx=0;entryDy=0;" parent="yQAe7mXzBgoi-jtD4TqB-2" source="yQAe7mXzBgoi-jtD4TqB-89" target="yQAe7mXzBgoi-jtD4TqB-20" edge="1">
          <mxGeometry width="160" relative="1" as="geometry">
            <mxPoint x="100" y="250" as="sourcePoint" />
            <mxPoint x="260" y="250" as="targetPoint" />
          </mxGeometry>
        </mxCell>
        <mxCell id="yQAe7mXzBgoi-jtD4TqB-24" value="Account Management" style="ellipse;whiteSpace=wrap;html=1;" parent="yQAe7mXzBgoi-jtD4TqB-2" vertex="1">
          <mxGeometry x="35" y="80" width="140" height="70" as="geometry" />
        </mxCell>
        <mxCell id="yQAe7mXzBgoi-jtD4TqB-25" value="Log in" style="ellipse;whiteSpace=wrap;html=1;" parent="yQAe7mXzBgoi-jtD4TqB-2" vertex="1">
          <mxGeometry x="189" y="170" width="70" height="30" as="geometry" />
        </mxCell>
        <mxCell id="yQAe7mXzBgoi-jtD4TqB-26" value="Log out" style="ellipse;whiteSpace=wrap;html=1;" parent="yQAe7mXzBgoi-jtD4TqB-2" vertex="1">
          <mxGeometry x="97.5" y="200" width="65" height="30" as="geometry" />
        </mxCell>
        <mxCell id="yQAe7mXzBgoi-jtD4TqB-31" value="View content" style="ellipse;whiteSpace=wrap;html=1;" parent="yQAe7mXzBgoi-jtD4TqB-2" vertex="1">
          <mxGeometry x="37.5" y="580" width="105" height="50" as="geometry" />
        </mxCell>
        <mxCell id="yQAe7mXzBgoi-jtD4TqB-33" value="Post" style="ellipse;whiteSpace=wrap;html=1;" parent="yQAe7mXzBgoi-jtD4TqB-2" vertex="1">
          <mxGeometry x="232" y="540" width="69" height="30" as="geometry" />
        </mxCell>
        <mxCell id="yQAe7mXzBgoi-jtD4TqB-34" value="Story" style="ellipse;whiteSpace=wrap;html=1;" parent="yQAe7mXzBgoi-jtD4TqB-2" vertex="1">
          <mxGeometry x="232" y="610" width="69" height="30" as="geometry" />
        </mxCell>
        <mxCell id="yQAe7mXzBgoi-jtD4TqB-35" value="User Profile" style="ellipse;whiteSpace=wrap;html=1;" parent="yQAe7mXzBgoi-jtD4TqB-2" vertex="1">
          <mxGeometry x="162.5" y="660" width="80" height="40" as="geometry" />
        </mxCell>
        <mxCell id="yQAe7mXzBgoi-jtD4TqB-36" value="&amp;lt;&amp;lt;include&amp;gt;&amp;gt;" style="html=1;verticalAlign=bottom;labelBackgroundColor=none;endArrow=open;endFill=0;dashed=1;rounded=0;exitX=1;exitY=1;exitDx=0;exitDy=0;entryX=0;entryY=0;entryDx=0;entryDy=0;" parent="yQAe7mXzBgoi-jtD4TqB-2" source="yQAe7mXzBgoi-jtD4TqB-31" target="yQAe7mXzBgoi-jtD4TqB-33" edge="1">
          <mxGeometry width="160" relative="1" as="geometry">
            <mxPoint x="289" y="487" as="sourcePoint" />
            <mxPoint x="360" y="510" as="targetPoint" />
          </mxGeometry>
        </mxCell>
        <mxCell id="yQAe7mXzBgoi-jtD4TqB-37" value="&amp;lt;&amp;lt;include&amp;gt;&amp;gt;" style="html=1;verticalAlign=bottom;labelBackgroundColor=none;endArrow=open;endFill=0;dashed=1;rounded=0;exitX=0.5;exitY=1;exitDx=0;exitDy=0;entryX=0.38;entryY=0.06;entryDx=0;entryDy=0;entryPerimeter=0;" parent="yQAe7mXzBgoi-jtD4TqB-2" source="yQAe7mXzBgoi-jtD4TqB-31" target="yQAe7mXzBgoi-jtD4TqB-35" edge="1">
          <mxGeometry width="160" relative="1" as="geometry">
            <mxPoint x="116.5" y="499" as="sourcePoint" />
            <mxPoint x="180.5" y="500" as="targetPoint" />
          </mxGeometry>
        </mxCell>
        <mxCell id="yQAe7mXzBgoi-jtD4TqB-39" value="&amp;lt;&amp;lt;include&amp;gt;&amp;gt;" style="html=1;verticalAlign=bottom;labelBackgroundColor=none;endArrow=open;endFill=0;dashed=1;rounded=0;exitX=0.744;exitY=0.908;exitDx=0;exitDy=0;entryX=0;entryY=0;entryDx=0;entryDy=0;exitPerimeter=0;" parent="yQAe7mXzBgoi-jtD4TqB-2" source="yQAe7mXzBgoi-jtD4TqB-31" target="yQAe7mXzBgoi-jtD4TqB-34" edge="1">
          <mxGeometry width="160" relative="1" as="geometry">
            <mxPoint x="137" y="500" as="sourcePoint" />
            <mxPoint x="201" y="501" as="targetPoint" />
          </mxGeometry>
        </mxCell>
        <mxCell id="yQAe7mXzBgoi-jtD4TqB-41" value="Add Email" style="ellipse;whiteSpace=wrap;html=1;" parent="yQAe7mXzBgoi-jtD4TqB-2" vertex="1">
          <mxGeometry x="320" y="60" width="61" height="30" as="geometry" />
        </mxCell>
        <mxCell id="yQAe7mXzBgoi-jtD4TqB-71" value="Add password" style="ellipse;whiteSpace=wrap;html=1;" parent="yQAe7mXzBgoi-jtD4TqB-2" vertex="1">
          <mxGeometry x="330" y="100" width="80" height="30" as="geometry" />
        </mxCell>
        <mxCell id="yQAe7mXzBgoi-jtD4TqB-72" value="Add date of birth" style="ellipse;whiteSpace=wrap;html=1;" parent="yQAe7mXzBgoi-jtD4TqB-2" vertex="1">
          <mxGeometry x="310" y="150" width="100" height="30" as="geometry" />
        </mxCell>
        <mxCell id="yQAe7mXzBgoi-jtD4TqB-74" value="&amp;lt;&amp;lt;include&amp;gt;&amp;gt;" style="html=1;verticalAlign=bottom;labelBackgroundColor=none;endArrow=open;endFill=0;dashed=1;rounded=0;entryX=0.04;entryY=0.26;entryDx=0;entryDy=0;exitX=1;exitY=1;exitDx=0;exitDy=0;entryPerimeter=0;" parent="yQAe7mXzBgoi-jtD4TqB-2" source="yQAe7mXzBgoi-jtD4TqB-7" target="yQAe7mXzBgoi-jtD4TqB-72" edge="1">
          <mxGeometry width="160" relative="1" as="geometry">
            <mxPoint x="278" y="120" as="sourcePoint" />
            <mxPoint x="296" y="182" as="targetPoint" />
          </mxGeometry>
        </mxCell>
        <mxCell id="yQAe7mXzBgoi-jtD4TqB-75" value="&amp;lt;&amp;lt;include&amp;gt;&amp;gt;" style="html=1;verticalAlign=bottom;labelBackgroundColor=none;endArrow=open;endFill=0;dashed=1;rounded=0;entryX=0.03;entryY=0.753;entryDx=0;entryDy=0;exitX=1;exitY=0;exitDx=0;exitDy=0;entryPerimeter=0;" parent="yQAe7mXzBgoi-jtD4TqB-2" source="yQAe7mXzBgoi-jtD4TqB-7" target="yQAe7mXzBgoi-jtD4TqB-41" edge="1">
          <mxGeometry width="160" relative="1" as="geometry">
            <mxPoint x="244" y="60" as="sourcePoint" />
            <mxPoint x="304" y="82" as="targetPoint" />
          </mxGeometry>
        </mxCell>
        <mxCell id="yQAe7mXzBgoi-jtD4TqB-76" value="&amp;lt;&amp;lt;include&amp;gt;&amp;gt;" style="html=1;verticalAlign=bottom;labelBackgroundColor=none;endArrow=open;endFill=0;dashed=1;rounded=0;entryX=0;entryY=0.5;entryDx=0;entryDy=0;exitX=1;exitY=0.5;exitDx=0;exitDy=0;" parent="yQAe7mXzBgoi-jtD4TqB-2" source="yQAe7mXzBgoi-jtD4TqB-7" target="yQAe7mXzBgoi-jtD4TqB-71" edge="1">
          <mxGeometry width="160" relative="1" as="geometry">
            <mxPoint x="259" y="150" as="sourcePoint" />
            <mxPoint x="319" y="172" as="targetPoint" />
          </mxGeometry>
        </mxCell>
        <mxCell id="yQAe7mXzBgoi-jtD4TqB-78" value="&amp;lt;&amp;lt;extend&amp;gt;&amp;gt;" style="html=1;verticalAlign=bottom;labelBackgroundColor=none;endArrow=open;endFill=0;dashed=1;rounded=0;exitX=1;exitY=0;exitDx=0;exitDy=0;entryX=0;entryY=0;entryDx=0;entryDy=0;" parent="yQAe7mXzBgoi-jtD4TqB-2" source="yQAe7mXzBgoi-jtD4TqB-24" target="yQAe7mXzBgoi-jtD4TqB-7" edge="1">
          <mxGeometry width="160" relative="1" as="geometry">
            <mxPoint x="190" y="150" as="sourcePoint" />
            <mxPoint x="350" y="150" as="targetPoint" />
          </mxGeometry>
        </mxCell>
        <mxCell id="yQAe7mXzBgoi-jtD4TqB-79" value="&amp;lt;&amp;lt;extend&amp;gt;&amp;gt;" style="html=1;verticalAlign=bottom;labelBackgroundColor=none;endArrow=open;endFill=0;dashed=1;rounded=0;exitX=0.94;exitY=0.715;exitDx=0;exitDy=0;entryX=0;entryY=0;entryDx=0;entryDy=0;exitPerimeter=0;" parent="yQAe7mXzBgoi-jtD4TqB-2" source="yQAe7mXzBgoi-jtD4TqB-24" target="yQAe7mXzBgoi-jtD4TqB-25" edge="1">
          <mxGeometry width="160" relative="1" as="geometry">
            <mxPoint x="177.5" y="130" as="sourcePoint" />
            <mxPoint x="241.5" y="134" as="targetPoint" />
          </mxGeometry>
        </mxCell>
        <mxCell id="yQAe7mXzBgoi-jtD4TqB-80" value="&amp;lt;&amp;lt;extend&amp;gt;&amp;gt;" style="html=1;verticalAlign=bottom;labelBackgroundColor=none;endArrow=open;endFill=0;dashed=1;rounded=0;exitX=0.604;exitY=1.02;exitDx=0;exitDy=0;entryX=0.5;entryY=0;entryDx=0;entryDy=0;exitPerimeter=0;" parent="yQAe7mXzBgoi-jtD4TqB-2" source="yQAe7mXzBgoi-jtD4TqB-24" target="yQAe7mXzBgoi-jtD4TqB-26" edge="1">
          <mxGeometry width="160" relative="1" as="geometry">
            <mxPoint x="142.5" y="160" as="sourcePoint" />
            <mxPoint x="174.5" y="204" as="targetPoint" />
          </mxGeometry>
        </mxCell>
        <mxCell id="yQAe7mXzBgoi-jtD4TqB-77" value="&amp;lt;&amp;lt;extend&amp;gt;&amp;gt;" style="html=1;verticalAlign=bottom;labelBackgroundColor=none;endArrow=open;endFill=0;dashed=1;rounded=0;entryX=0;entryY=0.5;entryDx=0;entryDy=0;exitX=0.586;exitY=0.049;exitDx=0;exitDy=0;exitPerimeter=0;" parent="yQAe7mXzBgoi-jtD4TqB-2" source="yQAe7mXzBgoi-jtD4TqB-13" target="yQAe7mXzBgoi-jtD4TqB-9" edge="1">
          <mxGeometry width="160" relative="1" as="geometry">
            <mxPoint x="90" y="360" as="sourcePoint" />
            <mxPoint x="250" y="360" as="targetPoint" />
          </mxGeometry>
        </mxCell>
        <mxCell id="yQAe7mXzBgoi-jtD4TqB-81" value="&amp;lt;&amp;lt;extend&amp;gt;&amp;gt;" style="html=1;verticalAlign=bottom;labelBackgroundColor=none;endArrow=open;endFill=0;dashed=1;rounded=0;entryX=0;entryY=0.5;entryDx=0;entryDy=0;exitX=1;exitY=0.5;exitDx=0;exitDy=0;" parent="yQAe7mXzBgoi-jtD4TqB-2" source="yQAe7mXzBgoi-jtD4TqB-13" target="yQAe7mXzBgoi-jtD4TqB-12" edge="1">
          <mxGeometry width="160" relative="1" as="geometry">
            <mxPoint x="212" y="448" as="sourcePoint" />
            <mxPoint x="320" y="400" as="targetPoint" />
            <Array as="points" />
          </mxGeometry>
        </mxCell>
        <mxCell id="yQAe7mXzBgoi-jtD4TqB-82" value="&amp;lt;&amp;lt;extend&amp;gt;&amp;gt;" style="html=1;verticalAlign=bottom;labelBackgroundColor=none;endArrow=open;endFill=0;dashed=1;rounded=0;entryX=0;entryY=0.5;entryDx=0;entryDy=0;exitX=1;exitY=1;exitDx=0;exitDy=0;" parent="yQAe7mXzBgoi-jtD4TqB-2" source="yQAe7mXzBgoi-jtD4TqB-13" target="yQAe7mXzBgoi-jtD4TqB-11" edge="1">
          <mxGeometry width="160" relative="1" as="geometry">
            <mxPoint x="180" y="500" as="sourcePoint" />
            <mxPoint x="250" y="490" as="targetPoint" />
            <Array as="points" />
          </mxGeometry>
        </mxCell>
        <mxCell id="yQAe7mXzBgoi-jtD4TqB-84" value="Add bio" style="ellipse;whiteSpace=wrap;html=1;" parent="yQAe7mXzBgoi-jtD4TqB-2" vertex="1">
          <mxGeometry x="190" y="230" width="69" height="30" as="geometry" />
        </mxCell>
        <mxCell id="yQAe7mXzBgoi-jtD4TqB-85" value="Change Password" style="ellipse;whiteSpace=wrap;html=1;" parent="yQAe7mXzBgoi-jtD4TqB-2" vertex="1">
          <mxGeometry x="60" y="240" width="110" height="30" as="geometry" />
        </mxCell>
        <mxCell id="yQAe7mXzBgoi-jtD4TqB-86" value="&amp;lt;&amp;lt;extend&amp;gt;&amp;gt;" style="html=1;verticalAlign=bottom;labelBackgroundColor=none;endArrow=open;endFill=0;dashed=1;rounded=0;exitX=0.299;exitY=0.1;exitDx=0;exitDy=0;exitPerimeter=0;entryX=0.5;entryY=1;entryDx=0;entryDy=0;" parent="yQAe7mXzBgoi-jtD4TqB-2" source="yQAe7mXzBgoi-jtD4TqB-8" target="yQAe7mXzBgoi-jtD4TqB-85" edge="1">
          <mxGeometry width="160" relative="1" as="geometry">
            <mxPoint x="60" y="390" as="sourcePoint" />
            <mxPoint x="220" y="390" as="targetPoint" />
          </mxGeometry>
        </mxCell>
        <mxCell id="yQAe7mXzBgoi-jtD4TqB-87" value="&amp;lt;&amp;lt;extend&amp;gt;&amp;gt;" style="html=1;verticalAlign=bottom;labelBackgroundColor=none;endArrow=open;endFill=0;dashed=1;rounded=0;exitX=0.696;exitY=0.015;exitDx=0;exitDy=0;exitPerimeter=0;entryX=0;entryY=1;entryDx=0;entryDy=0;" parent="yQAe7mXzBgoi-jtD4TqB-2" source="yQAe7mXzBgoi-jtD4TqB-8" target="yQAe7mXzBgoi-jtD4TqB-84" edge="1">
          <mxGeometry width="160" relative="1" as="geometry">
            <mxPoint x="119" y="315" as="sourcePoint" />
            <mxPoint x="125" y="280" as="targetPoint" />
          </mxGeometry>
        </mxCell>
        <mxCell id="yQAe7mXzBgoi-jtD4TqB-89" value="Manage Content" style="ellipse;whiteSpace=wrap;html=1;" parent="yQAe7mXzBgoi-jtD4TqB-2" vertex="1">
          <mxGeometry x="220" y="280" width="93" height="30" as="geometry" />
        </mxCell>
        <mxCell id="yQAe7mXzBgoi-jtD4TqB-90" value="&amp;lt;&amp;lt;extend&amp;gt;&amp;gt;" style="html=1;verticalAlign=bottom;labelBackgroundColor=none;endArrow=open;endFill=0;dashed=1;rounded=0;exitX=1;exitY=0.5;exitDx=0;exitDy=0;entryX=0.01;entryY=0.833;entryDx=0;entryDy=0;entryPerimeter=0;" parent="yQAe7mXzBgoi-jtD4TqB-2" source="yQAe7mXzBgoi-jtD4TqB-8" target="yQAe7mXzBgoi-jtD4TqB-89" edge="1">
          <mxGeometry width="160" relative="1" as="geometry">
            <mxPoint x="150" y="390" as="sourcePoint" />
            <mxPoint x="310" y="390" as="targetPoint" />
          </mxGeometry>
        </mxCell>
        <mxCell id="VOc-MlJ-7VGGks9Uuxmx-1" value="Manage groups" style="ellipse;whiteSpace=wrap;html=1;" vertex="1" parent="yQAe7mXzBgoi-jtD4TqB-2">
          <mxGeometry x="20" y="700" width="105" height="50" as="geometry" />
        </mxCell>
        <mxCell id="VOc-MlJ-7VGGks9Uuxmx-2" value="Create Group" style="ellipse;whiteSpace=wrap;html=1;" vertex="1" parent="yQAe7mXzBgoi-jtD4TqB-2">
          <mxGeometry x="200" y="720" width="90" height="30" as="geometry" />
        </mxCell>
        <mxCell id="VOc-MlJ-7VGGks9Uuxmx-3" value="Delete group" style="ellipse;whiteSpace=wrap;html=1;" vertex="1" parent="yQAe7mXzBgoi-jtD4TqB-2">
          <mxGeometry x="190" y="770" width="90" height="30" as="geometry" />
        </mxCell>
        <mxCell id="VOc-MlJ-7VGGks9Uuxmx-4" value="Join group" style="ellipse;whiteSpace=wrap;html=1;" vertex="1" parent="yQAe7mXzBgoi-jtD4TqB-2">
          <mxGeometry x="125" y="800" width="90" height="30" as="geometry" />
        </mxCell>
        <mxCell id="VOc-MlJ-7VGGks9Uuxmx-5" value="Exit group" style="ellipse;whiteSpace=wrap;html=1;" vertex="1" parent="yQAe7mXzBgoi-jtD4TqB-2">
          <mxGeometry x="27.5" y="820" width="90" height="30" as="geometry" />
        </mxCell>
        <mxCell id="VOc-MlJ-7VGGks9Uuxmx-6" value="&amp;lt;&amp;lt;extend&amp;gt;&amp;gt;" style="html=1;verticalAlign=bottom;labelBackgroundColor=none;endArrow=open;endFill=0;dashed=1;rounded=0;exitX=1.021;exitY=0.668;exitDx=0;exitDy=0;exitPerimeter=0;" edge="1" parent="yQAe7mXzBgoi-jtD4TqB-2" source="VOc-MlJ-7VGGks9Uuxmx-1" target="VOc-MlJ-7VGGks9Uuxmx-2">
          <mxGeometry width="160" relative="1" as="geometry">
            <mxPoint x="130" y="760" as="sourcePoint" />
            <mxPoint x="233" y="792" as="targetPoint" />
          </mxGeometry>
        </mxCell>
        <mxCell id="VOc-MlJ-7VGGks9Uuxmx-7" value="&amp;lt;&amp;lt;extend&amp;gt;&amp;gt;" style="html=1;verticalAlign=bottom;labelBackgroundColor=none;endArrow=open;endFill=0;dashed=1;rounded=0;exitX=0.93;exitY=0.812;exitDx=0;exitDy=0;exitPerimeter=0;entryX=0;entryY=0;entryDx=0;entryDy=0;" edge="1" parent="yQAe7mXzBgoi-jtD4TqB-2" source="VOc-MlJ-7VGGks9Uuxmx-1" target="VOc-MlJ-7VGGks9Uuxmx-3">
          <mxGeometry width="160" relative="1" as="geometry">
            <mxPoint x="125" y="760" as="sourcePoint" />
            <mxPoint x="198" y="762" as="targetPoint" />
          </mxGeometry>
        </mxCell>
        <mxCell id="VOc-MlJ-7VGGks9Uuxmx-8" value="&amp;lt;&amp;lt;extend&amp;gt;&amp;gt;" style="html=1;verticalAlign=bottom;labelBackgroundColor=none;endArrow=open;endFill=0;dashed=1;rounded=0;exitX=0.686;exitY=1.052;exitDx=0;exitDy=0;exitPerimeter=0;entryX=0.389;entryY=0.1;entryDx=0;entryDy=0;entryPerimeter=0;" edge="1" parent="yQAe7mXzBgoi-jtD4TqB-2">
          <mxGeometry width="160" relative="1" as="geometry">
            <mxPoint x="92.02999999999997" y="752.6000000000001" as="sourcePoint" />
            <mxPoint x="160.01" y="803.0000000000002" as="targetPoint" />
          </mxGeometry>
        </mxCell>
        <mxCell id="VOc-MlJ-7VGGks9Uuxmx-57" value="&amp;lt;&amp;lt;extend&amp;gt;&amp;gt;" style="html=1;verticalAlign=bottom;labelBackgroundColor=none;endArrow=open;endFill=0;dashed=1;rounded=0;exitX=0.343;exitY=1.036;exitDx=0;exitDy=0;exitPerimeter=0;entryX=0.5;entryY=0;entryDx=0;entryDy=0;" edge="1" parent="yQAe7mXzBgoi-jtD4TqB-2" source="VOc-MlJ-7VGGks9Uuxmx-1" target="VOc-MlJ-7VGGks9Uuxmx-5">
          <mxGeometry width="160" relative="1" as="geometry">
            <mxPoint x="56" y="780" as="sourcePoint" />
            <mxPoint x="124" y="830" as="targetPoint" />
          </mxGeometry>
        </mxCell>
        <mxCell id="VOc-MlJ-7VGGks9Uuxmx-59" value="Notifications" style="ellipse;whiteSpace=wrap;html=1;" vertex="1" parent="yQAe7mXzBgoi-jtD4TqB-2">
          <mxGeometry x="131" y="520" width="84" height="30" as="geometry" />
        </mxCell>
        <mxCell id="VOc-MlJ-7VGGks9Uuxmx-60" value="&amp;lt;&amp;lt;include&amp;gt;&amp;gt;" style="html=1;verticalAlign=bottom;labelBackgroundColor=none;endArrow=open;endFill=0;dashed=1;rounded=0;exitX=0.431;exitY=-0.027;exitDx=0;exitDy=0;entryX=0.095;entryY=0.846;entryDx=0;entryDy=0;exitPerimeter=0;entryPerimeter=0;" edge="1" parent="yQAe7mXzBgoi-jtD4TqB-2" source="yQAe7mXzBgoi-jtD4TqB-31" target="VOc-MlJ-7VGGks9Uuxmx-59">
          <mxGeometry width="160" relative="1" as="geometry">
            <mxPoint x="45.5" y="564" as="sourcePoint" />
            <mxPoint x="117.5" y="506" as="targetPoint" />
          </mxGeometry>
        </mxCell>
        <mxCell id="yQAe7mXzBgoi-jtD4TqB-6" value="" style="endArrow=none;html=1;rounded=0;entryX=0.002;entryY=0.065;entryDx=0;entryDy=0;entryPerimeter=0;exitX=1;exitY=0.062;exitDx=0;exitDy=0;exitPerimeter=0;strokeColor=#3333FF;" parent="1" source="yQAe7mXzBgoi-jtD4TqB-2" target="yQAe7mXzBgoi-jtD4TqB-2" edge="1">
          <mxGeometry width="50" height="50" relative="1" as="geometry">
            <mxPoint x="290" y="110" as="sourcePoint" />
            <mxPoint x="340" y="60" as="targetPoint" />
            <Array as="points" />
          </mxGeometry>
        </mxCell>
        <mxCell id="yQAe7mXzBgoi-jtD4TqB-18" value="" style="endArrow=none;html=1;rounded=0;exitX=0.5;exitY=0.5;exitDx=0;exitDy=0;exitPerimeter=0;entryX=0.021;entryY=0.38;entryDx=0;entryDy=0;entryPerimeter=0;" parent="1" source="yQAe7mXzBgoi-jtD4TqB-1" target="yQAe7mXzBgoi-jtD4TqB-13" edge="1">
          <mxGeometry width="50" height="50" relative="1" as="geometry">
            <mxPoint x="130" y="210" as="sourcePoint" />
            <mxPoint x="180" y="160" as="targetPoint" />
          </mxGeometry>
        </mxCell>
        <mxCell id="yQAe7mXzBgoi-jtD4TqB-23" value="" style="endArrow=none;html=1;rounded=0;exitX=0.5;exitY=0.5;exitDx=0;exitDy=0;exitPerimeter=0;entryX=0;entryY=0.5;entryDx=0;entryDy=0;" parent="1" source="yQAe7mXzBgoi-jtD4TqB-1" target="yQAe7mXzBgoi-jtD4TqB-8" edge="1">
          <mxGeometry width="50" height="50" relative="1" as="geometry">
            <mxPoint x="31" y="280" as="sourcePoint" />
            <mxPoint x="179" y="427" as="targetPoint" />
          </mxGeometry>
        </mxCell>
        <mxCell id="yQAe7mXzBgoi-jtD4TqB-30" value="" style="endArrow=none;html=1;rounded=0;exitX=0;exitY=0.5;exitDx=0;exitDy=0;entryX=0.5;entryY=0.5;entryDx=0;entryDy=0;entryPerimeter=0;" parent="1" source="yQAe7mXzBgoi-jtD4TqB-24" edge="1" target="yQAe7mXzBgoi-jtD4TqB-1">
          <mxGeometry width="50" height="50" relative="1" as="geometry">
            <mxPoint x="50" y="115" as="sourcePoint" />
            <mxPoint x="110" y="200" as="targetPoint" />
          </mxGeometry>
        </mxCell>
        <mxCell id="yQAe7mXzBgoi-jtD4TqB-32" value="" style="endArrow=none;html=1;rounded=0;entryX=0;entryY=0;entryDx=0;entryDy=0;exitX=0.5;exitY=0.5;exitDx=0;exitDy=0;exitPerimeter=0;" parent="1" source="yQAe7mXzBgoi-jtD4TqB-1" target="yQAe7mXzBgoi-jtD4TqB-31" edge="1">
          <mxGeometry width="50" height="50" relative="1" as="geometry">
            <mxPoint x="110" y="200" as="sourcePoint" />
            <mxPoint x="168" y="367" as="targetPoint" />
          </mxGeometry>
        </mxCell>
        <mxCell id="VOc-MlJ-7VGGks9Uuxmx-58" value="" style="endArrow=none;html=1;rounded=0;entryX=0.286;entryY=0;entryDx=0;entryDy=0;exitX=0.5;exitY=0.5;exitDx=0;exitDy=0;exitPerimeter=0;entryPerimeter=0;" edge="1" parent="1" source="yQAe7mXzBgoi-jtD4TqB-1" target="VOc-MlJ-7VGGks9Uuxmx-1">
          <mxGeometry width="50" height="50" relative="1" as="geometry">
            <mxPoint x="42" y="450" as="sourcePoint" />
            <mxPoint x="190" y="747" as="targetPoint" />
          </mxGeometry>
        </mxCell>
      </root>
    </mxGraphModel>
  </diagram>
</mxfile>
